# xmcd
#
# Track frame offsets:
#	150
#	15735
#	30698
#	43450
#	55165
#	69661
#	82557
#	97601
#	112556
#	128662
#	145320
#	158757
#	172118
#	183643
#	195769
#	213125
#	229283
#
# Disc length: 3224 seconds
#
# Revision: 1
# Processed by: cddbd v1.5.2PL0 Copyright (c) Steve Scherf et al.
# Submitted via: audiograbber 1.83.01
#
DISCID=d40c9611
DTITLE=Various Artist - Karoke Country Hits Of The 80's Disc 2
DYEAR=1900
DGENRE=Karaoke
TTITLE0=Strait, George - All My Ex's Live In Texas
TTITLE1=Nitty Gritty Dirt Band - Fishin' In The Dark
TTITLE2=Parton, Dolly - Take Me Back To The Country
TTITLE3=Oak Ridge Boys, The - Bobbie Sue
TTITLE4=Gatlin, Larry - Houston (Means I'm One Day Closer To You)
TTITLE5=McEntire, Reba - How Blue
TTITLE6=Anderson, John - Swingin
TTITLE7=Jones, George - Who's Gonna Fill Their Shoes
TTITLE8=Judds, The - Why Not Me
TTITLE9=Statler Brothers, The - Elizabeth
TTITLE10=Strait, George - The Chair
TTITLE11=Conice, John - Common Man
TTITLE12=Fricke, Janie - Don't Worry 'Bout Me Baby
TTITLE13=Exile - Wake Up In Love
TTITLE14=Alabama - Roll On Eighteen Wheeler
TTITLE15=Strait, George - You Look So Good In Love
TTITLE16=Gosdin, Vern - I Can Tell By The Way You Dance
EXTD=
EXTT0=
EXTT1=
EXTT2=
EXTT3=
EXTT4=
EXTT5=
EXTT6=
EXTT7=
EXTT8=
EXTT9=
EXTT10=
EXTT11=
EXTT12=
EXTT13=
EXTT14=
EXTT15=
EXTT16=
PLAYORDER=
